<svg width="135" height="24" viewBox="0 0 135 24" fill="none" xmlns="http://www.w3.org/2000/svg">
<rect x="11.5711" width="16.364" height="16.364" transform="rotate(45 11.5711 0)" fill="#7D67FF"/>
<rect x="17.4148" y="0.707107" width="15.364" height="15.364" transform="rotate(45 17.4148 0.707107)" stroke="#E1DFEC"/>
<path d="M43.0818 17.3342C41.9832 17.3342 41.0338 17.0942 40.2338 16.6142C39.4445 16.1235 38.8312 15.4462 38.3938 14.5822C37.9565 13.7075 37.7378 12.6942 37.7378 11.5422C37.7378 10.4008 37.9565 9.39815 38.3938 8.53415C38.8312 7.65948 39.4445 6.97682 40.2338 6.48615C41.0338 5.99548 41.9832 5.75015 43.0818 5.75015C44.3618 5.75015 45.4018 6.05948 46.2018 6.67815C47.0125 7.28615 47.5298 8.13948 47.7538 9.23815H46.2658C46.0952 8.54482 45.7432 7.99015 45.2098 7.57415C44.6872 7.14748 43.9778 6.93415 43.0818 6.93415C42.2818 6.93415 41.5832 7.12082 40.9858 7.49415C40.3885 7.85682 39.9245 8.38482 39.5938 9.07815C39.2738 9.76082 39.1138 10.5822 39.1138 11.5422C39.1138 12.5022 39.2738 13.3288 39.5938 14.0222C39.9245 14.7048 40.3885 15.2328 40.9858 15.6062C41.5832 15.9688 42.2818 16.1502 43.0818 16.1502C43.9778 16.1502 44.6872 15.9475 45.2098 15.5422C45.7432 15.1262 46.0952 14.5768 46.2658 13.8942H47.7538C47.5298 14.9715 47.0125 15.8142 46.2018 16.4222C45.4018 17.0302 44.3618 17.3342 43.0818 17.3342ZM49.6055 17.1422V9.20615H50.8215L50.9335 10.7262C51.1788 10.2035 51.5521 9.78748 52.0535 9.47815C52.5548 9.16882 53.1735 9.01415 53.9095 9.01415V10.4222H53.5415C53.0721 10.4222 52.6401 10.5075 52.2455 10.6782C51.8508 10.8382 51.5361 11.1155 51.3015 11.5102C51.0668 11.9048 50.9495 12.4488 50.9495 13.1422V17.1422H49.6055ZM56.282 20.6622L58.25 16.3742H57.786L54.634 9.20615H56.09L58.714 15.3822L61.498 9.20615H62.89L57.69 20.6622H56.282ZM64.3086 20.6622V9.20615H65.5246L65.6526 10.5182C65.9086 10.1342 66.2713 9.78748 66.7406 9.47815C67.2206 9.16882 67.8286 9.01415 68.5646 9.01415C69.3539 9.01415 70.0419 9.19548 70.6286 9.55815C71.2153 9.92082 71.6686 10.4168 71.9886 11.0462C72.3193 11.6755 72.4846 12.3902 72.4846 13.1902C72.4846 13.9902 72.3193 14.7048 71.9886 15.3342C71.6686 15.9528 71.2099 16.4435 70.6126 16.8062C70.0259 17.1582 69.3379 17.3342 68.5486 17.3342C67.8979 17.3342 67.3166 17.2008 66.8046 16.9342C66.3033 16.6675 65.9193 16.2942 65.6526 15.8142V20.6622H64.3086ZM68.4046 16.1662C68.9379 16.1662 69.4073 16.0435 69.8126 15.7982C70.2179 15.5422 70.5379 15.1902 70.7726 14.7422C71.0073 14.2942 71.1246 13.7715 71.1246 13.1742C71.1246 12.5768 71.0073 12.0542 70.7726 11.6062C70.5379 11.1582 70.2179 10.8115 69.8126 10.5662C69.4073 10.3102 68.9379 10.1822 68.4046 10.1822C67.8713 10.1822 67.4019 10.3102 66.9966 10.5662C66.5913 10.8115 66.2713 11.1582 66.0366 11.6062C65.8019 12.0542 65.6846 12.5768 65.6846 13.1742C65.6846 13.7715 65.8019 14.2942 66.0366 14.7422C66.2713 15.1902 66.5913 15.5422 66.9966 15.7982C67.4019 16.0435 67.8713 16.1662 68.4046 16.1662ZM77.179 17.1422C76.4536 17.1422 75.883 16.9662 75.467 16.6142C75.051 16.2622 74.843 15.6275 74.843 14.7102V10.3422H73.467V9.20615H74.843L75.019 7.30215H76.187V9.20615H78.523V10.3422H76.187V14.7102C76.187 15.2115 76.2883 15.5528 76.491 15.7342C76.6936 15.9048 77.051 15.9902 77.563 15.9902H78.395V17.1422H77.179ZM83.6277 17.3342C82.881 17.3342 82.209 17.1635 81.6117 16.8222C81.0144 16.4808 80.5397 16.0008 80.1877 15.3822C79.8464 14.7528 79.6757 14.0168 79.6757 13.1742C79.6757 12.3315 79.8517 11.6008 80.2037 10.9822C80.5557 10.3528 81.0304 9.86748 81.6277 9.52615C82.2357 9.18482 82.913 9.01415 83.6597 9.01415C84.4064 9.01415 85.0784 9.18482 85.6757 9.52615C86.273 9.86748 86.7424 10.3528 87.0837 10.9822C87.4357 11.6008 87.6117 12.3315 87.6117 13.1742C87.6117 14.0168 87.4357 14.7528 87.0837 15.3822C86.7317 16.0008 86.2517 16.4808 85.6437 16.8222C85.0464 17.1635 84.3744 17.3342 83.6277 17.3342ZM83.6277 16.1822C84.0864 16.1822 84.513 16.0702 84.9077 15.8462C85.3024 15.6222 85.6224 15.2862 85.8677 14.8382C86.113 14.3902 86.2357 13.8355 86.2357 13.1742C86.2357 12.5128 86.113 11.9582 85.8677 11.5102C85.633 11.0622 85.3184 10.7262 84.9237 10.5022C84.529 10.2782 84.1077 10.1662 83.6597 10.1662C83.201 10.1662 82.7744 10.2782 82.3797 10.5022C81.985 10.7262 81.665 11.0622 81.4197 11.5102C81.1744 11.9582 81.0517 12.5128 81.0517 13.1742C81.0517 13.8355 81.1744 14.3902 81.4197 14.8382C81.665 15.2862 81.9797 15.6222 82.3637 15.8462C82.7584 16.0702 83.1797 16.1822 83.6277 16.1822ZM89.4645 17.1422V5.94215H93.9605C95.1231 5.94215 96.0085 6.21415 96.6165 6.75815C97.2351 7.29148 97.5445 7.97948 97.5445 8.82215C97.5445 9.52615 97.3525 10.0915 96.9685 10.5182C96.5951 10.9342 96.1365 11.2168 95.5925 11.3662C96.2325 11.4942 96.7605 11.8142 97.1765 12.3262C97.5925 12.8275 97.8005 13.4142 97.8005 14.0862C97.8005 14.9715 97.4805 15.7022 96.8405 16.2782C96.2005 16.8542 95.2938 17.1422 94.1205 17.1422H89.4645ZM91.5125 10.6462H93.6565C94.2325 10.6462 94.6751 10.5128 94.9845 10.2462C95.2938 9.97948 95.4485 9.60082 95.4485 9.11015C95.4485 8.64082 95.2938 8.27282 94.9845 8.00615C94.6858 7.72882 94.2325 7.59015 93.6245 7.59015H91.5125V10.6462ZM91.5125 15.4782H93.8005C94.4085 15.4782 94.8778 15.3395 95.2085 15.0622C95.5498 14.7742 95.7205 14.3742 95.7205 13.8622C95.7205 13.3395 95.5445 12.9288 95.1925 12.6302C94.8405 12.3315 94.3658 12.1822 93.7685 12.1822H91.5125V15.4782ZM103.318 17.3342C102.55 17.3342 101.857 17.1582 101.238 16.8062C100.63 16.4542 100.145 15.9688 99.7822 15.3502C99.4302 14.7208 99.2542 13.9955 99.2542 13.1742C99.2542 12.3528 99.4355 11.6328 99.7982 11.0142C100.161 10.3848 100.646 9.89415 101.254 9.54215C101.873 9.19015 102.566 9.01415 103.334 9.01415C104.092 9.01415 104.774 9.19015 105.382 9.54215C106.001 9.89415 106.486 10.3848 106.838 11.0142C107.201 11.6328 107.382 12.3528 107.382 13.1742C107.382 13.9955 107.201 14.7208 106.838 15.3502C106.486 15.9688 106.001 16.4542 105.382 16.8062C104.764 17.1582 104.076 17.3342 103.318 17.3342ZM103.318 15.5582C103.852 15.5582 104.316 15.3608 104.71 14.9662C105.105 14.5608 105.302 13.9635 105.302 13.1742C105.302 12.3848 105.105 11.7928 104.71 11.3982C104.316 10.9928 103.857 10.7902 103.334 10.7902C102.79 10.7902 102.321 10.9928 101.926 11.3982C101.542 11.7928 101.35 12.3848 101.35 13.1742C101.35 13.9635 101.542 14.5608 101.926 14.9662C102.321 15.3608 102.785 15.5582 103.318 15.5582ZM111.949 17.3342C111.267 17.3342 110.707 17.2275 110.269 17.0142C109.832 16.7902 109.507 16.4968 109.293 16.1342C109.08 15.7715 108.973 15.3715 108.973 14.9342C108.973 14.1982 109.261 13.6008 109.837 13.1422C110.413 12.6835 111.277 12.4542 112.429 12.4542H114.445V12.2622C114.445 11.7182 114.291 11.3182 113.981 11.0622C113.672 10.8062 113.288 10.6782 112.829 10.6782C112.413 10.6782 112.051 10.7795 111.741 10.9822C111.432 11.1742 111.24 11.4622 111.165 11.8462H109.165C109.219 11.2702 109.411 10.7688 109.741 10.3422C110.083 9.91548 110.52 9.59015 111.053 9.36615C111.587 9.13148 112.184 9.01415 112.845 9.01415C113.976 9.01415 114.867 9.29682 115.517 9.86215C116.168 10.4275 116.493 11.2275 116.493 12.2622V17.1422H114.749L114.557 15.8622C114.323 16.2888 113.992 16.6408 113.565 16.9182C113.149 17.1955 112.611 17.3342 111.949 17.3342ZM112.413 15.7342C113 15.7342 113.453 15.5422 113.773 15.1582C114.104 14.7742 114.312 14.2995 114.397 13.7342H112.653C112.109 13.7342 111.72 13.8355 111.485 14.0382C111.251 14.2302 111.133 14.4702 111.133 14.7582C111.133 15.0675 111.251 15.3075 111.485 15.4782C111.72 15.6488 112.029 15.7342 112.413 15.7342ZM118.448 17.1422V9.20615H120.272L120.464 10.6942C120.752 10.1822 121.141 9.77682 121.632 9.47815C122.133 9.16882 122.72 9.01415 123.392 9.01415V11.1742H122.816C122.368 11.1742 121.968 11.2435 121.616 11.3822C121.264 11.5208 120.986 11.7608 120.784 12.1022C120.592 12.4435 120.496 12.9182 120.496 13.5262V17.1422H118.448ZM128.299 17.3342C127.552 17.3342 126.886 17.1528 126.299 16.7902C125.712 16.4275 125.248 15.9315 124.907 15.3022C124.566 14.6728 124.395 13.9582 124.395 13.1582C124.395 12.3582 124.566 11.6488 124.907 11.0302C125.248 10.4008 125.712 9.91015 126.299 9.55815C126.886 9.19548 127.552 9.01415 128.299 9.01415C128.896 9.01415 129.419 9.12615 129.867 9.35015C130.315 9.57415 130.678 9.88882 130.955 10.2942V5.62215H133.003V17.1422H131.179L130.955 16.0062C130.699 16.3582 130.358 16.6675 129.931 16.9342C129.515 17.2008 128.971 17.3342 128.299 17.3342ZM128.731 15.5422C129.392 15.5422 129.931 15.3235 130.347 14.8862C130.774 14.4382 130.987 13.8675 130.987 13.1742C130.987 12.4808 130.774 11.9155 130.347 11.4782C129.931 11.0302 129.392 10.8062 128.731 10.8062C128.08 10.8062 127.542 11.0248 127.115 11.4622C126.688 11.8995 126.475 12.4648 126.475 13.1582C126.475 13.8515 126.688 14.4222 127.115 14.8702C127.542 15.3182 128.08 15.5422 128.731 15.5422Z" fill="#E1DFEC"/>
</svg>
